<?xml version="1.0" encoding="utf-8"?>
<!-- Generator: Adobe Illustrator 24.1.1, SVG Export Plug-In . SVG Version: 6.00 Build 0)  -->
<svg version="1.1" id="Layer_1" xmlns="http://www.w3.org/2000/svg" xmlns:xlink="http://www.w3.org/1999/xlink" x="0px" y="0px"
	 viewBox="0 0 100 100" style="enable-background:new 0 0 100 100;" xml:space="preserve">
<style type="text/css">
	.st0{fill:#AB0004;}
	.st1{fill:#FFFFFF;}
</style>
<g>
	<path class="st0" d="M36.6,82.3c-5.1,0-10.2,0-15.3,0c-1.2,0-1.6-0.3-1.6-1.6c0-10.1,0-20.3,0-30.4c0.1-7.6,2.1-14.6,6.8-20.6
		c5.5-7,12.6-11.4,21.5-12.4c13.3-1.6,23.8,3.3,31.5,14.2C83,36.4,84.7,42,85,48.1c0.4,9.3-2.7,17.4-9.1,24.1
		c-5.2,5.4-11.6,8.7-19,9.7c-2.1,0.3-4.3,0.4-6.4,0.4C45.8,82.3,41.2,82.3,36.6,82.3z"/>
</g>
<g>
	<path class="st1" d="M48.5,68.1c2,0.1,3.5-0.8,5.1-1.8c0.4-0.3,0.7-0.7,0.6-1.2c-0.1-0.6-0.6-0.7-1.1-0.8c-1.4-0.4-2-1-1.8-2.5
		c0.1-0.9,0.2-1.8,0.5-2.6c1.5-5.7,3.1-11.4,4.6-17.1c0.7-2.6-0.1-3.9-2.8-4.5c-2.6-0.6-4.8,0.3-6.8,1.9c-0.8,0.6-0.5,1.5,0.5,1.8
		c1.8,0.6,2,0.8,2,2.7c0,0.8-0.2,1.5-0.4,2.3c-1.6,6-3.2,12-4.8,18c-0.5,1.8,0.2,2.9,1.9,3.5C46.8,68,47.7,68.1,48.5,68.1z
		 M59.7,30.4c0-2-1.5-3.4-3.5-3.4c-1.9,0-3.3,1.5-3.3,3.4c0,1.9,1.4,3.4,3.3,3.4C58.2,33.9,59.7,32.4,59.7,30.4z"/>
</g>
</svg>
