<?xml version="1.0" encoding="utf-8"?>
<!-- Generator: Adobe Illustrator 24.1.1, SVG Export Plug-In . SVG Version: 6.00 Build 0)  -->
<svg version="1.1" id="Layer_1" xmlns="http://www.w3.org/2000/svg" xmlns:xlink="http://www.w3.org/1999/xlink" x="0px" y="0px"
	 viewBox="0 0 100 100" style="enable-background:new 0 0 100 100;" xml:space="preserve">
<style type="text/css">
	.st0{fill:#010101;}
</style>
<g>
	<path class="st0" d="M42.9,40.2c-1.3,3.2-2.6,6.4-3.9,9.6c-0.1,0.3-0.1,0.8-0.1,1.2c0,4.2,0,8.3,0,12.5c0,1.2-0.3,2.2-1.5,2.7
		c-1,0.5-2,0.4-2.9-0.3c-0.9-0.6-1.1-1.5-1.1-2.4c0-4.7,0-9.4,0-14.1c0-0.6,0.2-1.2,0.4-1.8c1.4-3.3,2.8-6.6,4.1-9.9
		c0.5-1.2,1.2-2,2.4-2.5c2-0.8,4-1.8,6-2.6c3.6-1.5,7.3-1.6,10.9,0.1c2,0.9,4.1,1.8,6.1,2.7c1,0.4,1.7,1.1,2.1,2.2
		c1.4,3.4,2.8,6.9,4.3,10.3c0.3,0.6,0.3,1.3,0.3,1.9c0,4.5,0,9,0,13.6c0,1-0.2,1.9-1,2.5c-0.6,0.4-0.3,1.1-0.3,1.6
		c0.1,0.6,0.7,0.3,1,0.3c2,0.1,2,0,2,2c0,5.2,0,10.4,0,15.5c0,0.9-0.2,1.2-1.1,1.2c-2.2-0.1-4.5,0-6.7,0c-0.7,0-0.9-0.1-0.9-0.9
		c0-5.7,0-11.3,0-17c0-0.7,0.3-0.9,0.9-0.8c0.3,0,0.6,0,0.9,0c0.4-0.1,1,0.3,1.1-0.3c0.1-0.5,0.3-1.1-0.3-1.6c-0.9-0.7-1-1.6-1-2.6
		c0-4.1,0-8.3,0-12.4c0-0.4,0-0.8-0.1-1.2c-1.3-3.2-2.6-6.4-4-9.8c-0.4,0.6-0.3,1-0.3,1.5c0,15.2,0.1,30.3,0.1,45.5
		c0,0.6,0,1.1-0.1,1.7c-0.3,1.9-1.6,3-3.6,2.9c-1.8-0.1-3-1.3-3.1-3.3c0-7.6,0-15.2,0-22.8c0-1.1-0.3-1.4-1.4-1.4
		C50,64.1,50,64,50,66.5c0,7.2,0,14.3,0,21.5c0,2.8-2.7,4.3-5.1,3c-0.9-0.5-1.5-1.2-1.6-2.3c0-0.7-0.1-1.3-0.1-2
		c0-15.1,0-30.1,0-45.2c0-0.5,0-0.9,0-1.4C43.1,40.2,43,40.2,42.9,40.2z"/>
	<path class="st0" d="M52.2,13.2c4.5,0,8.3,3.8,8.3,8.3c0,4.6-3.8,8.3-8.3,8.3c-4.6,0-8.3-3.7-8.3-8.3
		C43.9,16.9,47.7,13.2,52.2,13.2z"/>
</g>
</svg>
