<?xml version="1.0" encoding="utf-8"?>
<!-- Generator: Adobe Illustrator 24.1.1, SVG Export Plug-In . SVG Version: 6.00 Build 0)  -->
<svg version="1.1" id="Layer_1" xmlns="http://www.w3.org/2000/svg" xmlns:xlink="http://www.w3.org/1999/xlink" x="0px" y="0px"
	 viewBox="0 0 100 100" style="enable-background:new 0 0 100 100;" xml:space="preserve">
<style type="text/css">
	.st0{fill:#010101;}
</style>
<g>
	<path class="st0" d="M38.8,39.1c0,0.6,0,1.2,0,1.8c0,14.7,0,29.4,0,44.1c0,0.6,0,1.2-0.1,1.8c-0.3,2.1-1.7,3.2-3.8,3.1
		c-1.8-0.1-3.1-1.4-3.1-3.5c0-7.6-0.1-15.2,0-22.9c0-1.4-0.3-1.9-1.7-1.8c-1.1,0.1-1.3,0.4-1.3,1.4c0,7.5,0,15,0,22.5
		c0,2.9-1.4,4.3-3.9,4.2c-1.7-0.1-2.9-1.3-3.1-3c-0.1-0.6,0-1.2,0-1.8c0-14.9,0-29.7,0-44.6c0-0.5,0-1.1,0-1.7
		c-0.6,0.3-0.7,0.9-0.9,1.3c-2.3,4.8-4.5,9.5-6.8,14.3c-0.8,1.6-1.8,2.8-3.8,2.6C8,56.9,6.5,54.8,7,52.7c0.1-0.5,0.4-1,0.6-1.5
		c2.6-5.5,5.3-11.1,8-16.6c2.2-4.7,5.9-7.1,11.2-7c3.1,0.1,6.2-0.2,9.2,0.1c3.9,0.4,6.6,2.5,8.3,5.9c1.8,3.6,3.5,7.2,5.2,10.8
		c0.1,0.2,0.2,0.4,0.5,0.9c1.5-3,2.8-5.8,4.2-8.6c0.7-1.5,1.3-3,2.2-4.3c1.7-2.6,4.1-4.3,7.2-4.7c4.1-0.4,8.2-0.4,12.3,0
		c3.8,0.3,6.5,2.5,8.2,5.8c3,6.1,5.9,12.2,8.8,18.4c0.8,1.6,0.2,3.5-1.2,4.4c-1.6,1-3.7,0.6-4.8-0.9c-0.3-0.5-0.6-1-0.9-1.6
		c-2.4-4.9-4.7-9.8-7.1-14.7c-0.2-0.5-0.3-1.4-1-1.2c-0.8,0.3-0.3,1.1-0.1,1.7c2.6,9.3,5.1,18.6,7.7,27.8c0.1,0.5,0.4,0.9,0.2,1.5
		c-1.9,0-3.9,0.1-5.8,0c-1.1,0-1.3,0.3-1.3,1.3c0.1,5.1,0,10.3,0,15.4c0,2.5-1.4,4.1-3.6,4.1c-2.2,0-3.5-1.6-3.5-4.1
		c0-5,0-10,0-15.1c0-1.2-0.2-1.6-1.5-1.6c-1.5,0-1.5,0.7-1.5,1.7c0,5,0,10,0,15.1c0,2.4-1.2,3.9-3.2,4.1c-2.4,0.2-3.8-1.1-3.9-3.5
		c0-5.1-0.1-10.2,0-15.2c0-1.5-0.2-2.3-2-2c-1.3,0.2-2.7,0-4,0.1c-1.1,0.1-1.3-0.3-1-1.3c1.5-5.2,2.9-10.4,4.3-15.6
		c1.2-4.2,2.3-8.4,3.4-12.6c0.1-0.5,0.7-1.3-0.1-1.5c-0.7-0.2-0.8,0.7-1.1,1.2c-2.4,5-4.9,10-7.2,15c-0.8,1.7-1.8,2.9-3.7,2.8
		C48,57,47,55.8,46.3,54.2c-2.4-5.1-4.8-10.1-7.2-15.1C39,39.1,38.9,39.1,38.8,39.1z"/>
	<path class="st0" d="M69.9,26.3c-4.5,0-8.1-3.6-8.1-8.1c0-4.4,3.7-8.2,8.2-8.1c4.4,0,8,3.6,8,8.1C77.9,22.7,74.4,26.3,69.9,26.3z"
		/>
	<path class="st0" d="M30.2,10.3c4.5,0,8.1,3.5,8.1,8.1c0,4.5-3.7,8.1-8.1,8.1c-4.4,0-8-3.7-8.1-8C22,14,25.7,10.3,30.2,10.3z"/>
</g>
</svg>
