<?xml version="1.0" encoding="utf-8"?>
<!-- Generator: Adobe Illustrator 24.1.1, SVG Export Plug-In . SVG Version: 6.00 Build 0)  -->
<svg version="1.1" id="Layer_1" xmlns="http://www.w3.org/2000/svg" xmlns:xlink="http://www.w3.org/1999/xlink" x="0px" y="0px"
	 viewBox="0 0 100 100" style="enable-background:new 0 0 100 100;" xml:space="preserve">
<style type="text/css">
	.st0{fill:#010201;}
	.st1{fill:#010101;}
	.st2{fill:#010202;}
	.st3{fill:#060606;}
	.st4{fill:#F7F8F8;}
	.st5{fill:#F9FBFC;}
	.st6{fill:#FAFBFC;}
</style>
<g>
	<path class="st0" d="M60.1,65.8c-0.3,0.6-0.2,1.2-0.2,1.7c0,7,0,14,0,21c0,2.3-0.6,3.4-2,3.4c-1.4,0-1.9-1-1.9-3.3
		c0-17.2,0-34.4,0-51.6c0-1.7,0-1.7,1.7-1.1c5.6,2,8.5,6.2,9.5,11.9c0.5,3,1.3,5.9,1.8,8.8c0.2,1,0.6,1.2,1.6,1.2
		c1.4,0,2.8-0.3,4.2,0.3c0.9,0.4,0.8-0.4,0.8-0.9c0-3.8,0-7.6,0-11.4c0-3.1,0-6.2,0-9.3c0-0.8-0.2-1.1-1-1.1c-3.7-0.3-6-2.8-6-6.5
		c0.1-4.5,0.3-9,0.4-13.5c0-0.2,0-0.5,0-0.7c0-0.6,0.3-1.1,0.9-1.1c0.6,0,0.7,0.5,0.8,1.1c0,1.2,0.1,2.4,0.2,3.5
		c0.1,3.6,0.3,7.2,0.3,10.8c0,1.2,0.5,2.2,1.4,2.9c0.8,0.6,1.7,0.9,2.6,0.5c0.9-0.4,0.8-1.3,0.9-2c0.1-4.8,0.3-9.6,0.4-14.3
		c0-0.4,0-0.9,0-1.3c0-0.6,0.2-1.1,0.9-1.1c0.7,0,0.8,0.5,0.9,1.1c0.1,3,0.2,5.9,0.3,8.9c0.1,2.2,0.1,4.4,0.1,6.7
		c0,0.8,0,1.8,0.9,2.2c1.1,0.4,2.1,0.1,3-0.7c0.7-0.7,1-1.5,1.1-2.5c0.2-4.7,0.4-9.4,0.5-14c0-0.7-0.1-1.6,0.9-1.5
		c0.9,0,0.9,0.9,0.9,1.6c0.1,4.4,0.3,8.9,0.4,13.3c0.1,3.9-2.2,6.6-6.1,6.9c-0.8,0.1-1,0.3-1,1c0,7,0,14,0,21c0,0.7,0.1,1,0.8,1.3
		c2.2,0.8,3.3,2.5,3.4,4.7c0,2.2-1.1,3.9-3.2,4.7c-0.9,0.3-1.1,0.8-1.1,1.6c0,6.3,0,12.6,0,18.9c0,0.5,0,1-0.1,1.5
		c-0.1,1-0.7,1.6-1.7,1.7c-1.1,0-1.8-0.5-2-1.6c-0.1-0.5-0.1-1.1-0.1-1.6c0-6.3,0-12.5,0-18.8c0-1,0-1.6-1.3-0.9
		c-0.8,0.4-1.6,0.3-2.5,0.2c-2.1-0.1-4.2,0.2-6.3-0.2C63.4,68.5,61.7,67.3,60.1,65.8z"/>
	<path class="st1" d="M26.7,83.1c-4.7,0.9-6.9-2.1-7.2-6c-0.7-9.2-0.2-18.5-0.4-27.7c0-2.5,0.3-5,1.6-7.2c1.9-3.3,4.7-5.4,8.4-6.5
		c1.2-0.3,1.4-0.1,1.4,1.1c0,16.3,0,32.6,0,49c0,1.3,0,2.7,0,4c0,1.2-0.8,2.2-1.8,2.2c-1,0-2-0.9-2-2.2
		C26.6,87.5,26.7,85.3,26.7,83.1z"/>
	<path class="st1" d="M44.1,39.4c-4.5,0-8.1-2.8-9.2-6.4c-0.2-0.7-0.8-1-1.1-1.5c-1.4-2.2-3.9-2-5.9-2.9c-1.5-0.6-3.2-1.1-3.2-3.2
		c0-2.2,1.8-2.6,3.3-3.3c0.7-0.3,1.5-0.6,2.3-0.7c1.4-0.1,1.7-0.8,1.6-2.1c-0.2-1.7,0-3.3,0.2-5c0.5-3.3,3.4-5.4,6.7-4.8
		c0.7,0.1,1.4,0.3,2.1,0.5c1.8,0.6,3.6,0.5,5.5,0c1.3-0.4,2.6-0.9,4-0.6c2.7,0.5,4.4,2.3,4.8,5.1c0.2,1.7,0.3,3.4,0.2,5.2
		c-0.1,1.2,0.4,1.5,1.4,1.7c1.5,0.3,2.9,0.7,4.3,1.5c2.1,1.3,2.1,3.5,0,4.8c-1.6,1-3.5,1.4-5.3,1.8c-0.6,0.2-1,0.7-1.4,1
		c-1.9,1.1-2,3.3-3.1,4.9C49.2,38,46.5,39.2,44.1,39.4z"/>
	<path class="st2" d="M33.5,35.3c5.9,7.7,11.9,8,19.7,0.9c0,4,0,7.9,0,11.9c0,1.3-1,2.2-2.3,2.2c-5,0-9.9,0-14.9,0
		c-1.5,0-2.4-0.9-2.4-2.4C33.4,43.8,33.5,39.7,33.5,35.3z"/>
	<path class="st3" d="M45.4,87.4c0,0.9,0.1,1.8,0,2.6c-0.1,1.2-0.9,1.8-2,1.8c-1,0-1.8-0.7-1.8-1.8c0-1.8-0.1-3.6,0-5.5
		c0-1.1,0.8-1.7,1.8-1.8c1,0,1.8,0.6,1.9,1.7C45.4,85.4,45.4,86.4,45.4,87.4C45.4,87.4,45.4,87.4,45.4,87.4z"/>
	<path class="st4" d="M75.5,63.5c0-2.5,0-2.5,1.6-2.5c2.7,0,3.8,0.7,3.7,2.5c0,1.7-1.2,2.2-3.8,2.4C74.6,66.1,75.8,64.4,75.5,63.5z"
		/>
	<path class="st5" d="M26.6,77.7c-0.1,1,0.5,2.4-1.2,2.7c-1.2,0.2-2.2-0.1-2.7-1.2c-0.6-1.1-0.2-2.4-0.2-3.6c0-0.3,0.3-0.3,0.5-0.3
		c0.4,0,0.8,0,1.2,0C26.6,75.2,26.6,75.2,26.6,77.7z"/>
	<path class="st6" d="M48.3,25.7c0.2-0.5,0.4-0.8,0.6-1.2c0.3-0.7,0.9-0.4,1.4-0.4c0.7,0,0.6,0.4,0.6,0.9c0,0.4,0.1,0.8,0.4,0.9
		c1.5,0.6,0.7,1.7,0.7,2.7c0,0.2,0,0.5-0.4,0.6c-1.7,0.1-1.6,1.5-1.9,2.6c-0.7,2.5-2.9,4.6-5.3,4.8c-2.6,0.3-4.7-0.9-6.2-2.9
		c-0.7-0.9-0.8-2.1-1.1-3.2c-0.2-0.5-0.3-0.9-0.8-1.2c-1.6-0.8-1.8-2-0.5-3.4c0.1-0.1,0.3-0.2,0.3-0.3c-0.2-2,1.4-1.4,2.4-1.7
		c0.5-0.1,1,0,1.5-0.1c1.8-0.4,3.2,0.3,4.2,1.8c0.6,1,1.1,0.7,1.6-0.1C47,24,47,24.1,48.3,25.7z"/>
	<path class="st5" d="M51.5,18c0,2.4,0,2.3-2.4,2.1c-4-0.3-8-0.4-12.1,0.2c-1.1,0.2-1.6-0.1-1.5-1.3c0.1-1.3,0-2.5,0.2-3.8
		c0.2-1.5,1-2,2.4-1.7c1.3,0.3,2.7,0.7,4,0.9c1.9,0.3,3.8-0.1,5.6-0.7c2.3-0.8,3.3-0.3,3.5,2.2C51.4,16.6,51.4,17.3,51.5,18z"/>
</g>
</svg>
