<?xml version="1.0" encoding="utf-8"?>
<!-- Generator: Adobe Illustrator 24.1.1, SVG Export Plug-In . SVG Version: 6.00 Build 0)  -->
<svg version="1.1" id="Layer_1" xmlns="http://www.w3.org/2000/svg" xmlns:xlink="http://www.w3.org/1999/xlink" x="0px" y="0px"
	 viewBox="0 0 32 32.2" style="enable-background:new 0 0 32 32.2;" xml:space="preserve">
<style type="text/css">
	.st0{fill:#166031;}
	.st1{fill:#DDC18B;}
</style>
<g>
	<path class="st0" d="M0.9,16.5C1,8.3,7.2,1.4,16,1.4c8.8,0,15.1,7,15.1,15c0,8.3-6.7,15-15,15.1C7.8,31.5,0.9,24.8,0.9,16.5z"/>
	<g>
		<path class="st1" d="M17.6,19.4c0,1.5,0,3.1,0,4.6c0,1.1-0.4,1.4-1.4,1.4c-0.2,0-0.4,0-0.5,0c-0.7,0-1.2-0.4-1.2-1.2
			c0-0.4,0-0.8,0-1.2c0-2.7,0-5.5,0-8.2c0-1.1,0.4-1.5,1.5-1.5c0.1,0,0.3,0,0.4,0c0.9,0,1.3,0.4,1.3,1.3
			C17.6,16.2,17.6,17.8,17.6,19.4z"/>
		<path class="st1" d="M16,8.3c1.2,0,1.6,0.3,1.6,1.5c0,1.2-0.4,1.6-1.6,1.6c-1.2,0-1.6-0.4-1.6-1.6C14.4,8.6,14.7,8.3,16,8.3z"/>
	</g>
</g>
</svg>
