<?xml version="1.0" encoding="utf-8"?>
<!-- Generator: Adobe Illustrator 24.1.1, SVG Export Plug-In . SVG Version: 6.00 Build 0)  -->
<svg version="1.1" id="Layer_1" xmlns="http://www.w3.org/2000/svg" xmlns:xlink="http://www.w3.org/1999/xlink" x="0px" y="0px"
	 viewBox="0 0 100 100" style="enable-background:new 0 0 100 100;" xml:space="preserve">
<style type="text/css">
	.st0{fill:#010101;}
</style>
<g>
	<path class="st0" d="M73.4,54.4c-0.8,1.7-1.8,2.9-3.7,2.8c-2-0.2-3-1.4-3.7-3c-2.4-5.1-4.8-10.1-7.2-15.1c-0.1,0-0.2,0-0.3,0
		c0,0.6,0,1.2,0,1.8c0,14.7,0,29.4,0,44.1c0,0.6,0,1.2-0.1,1.8c-0.3,2.1-1.7,3.2-3.8,3.1c-1.8-0.1-3.1-1.4-3.1-3.5
		c0-7.6-0.1-15.2,0-22.9c0-1.4-0.3-1.9-1.7-1.8c-1.1,0.1-1.3,0.4-1.3,1.4c0,7.5,0,15,0,22.5c0,2.9-1.4,4.3-3.9,4.2
		c-1.7-0.1-2.9-1.3-3.1-3c-0.1-0.6,0-1.2,0-1.8c0-14.9,0-29.7,0-44.6c0-0.5,0-1.1,0-1.7c-0.6,0.3-0.7,0.9-0.9,1.3
		c-2.3,4.8-4.5,9.5-6.8,14.3C33,55.9,32,57.1,30,56.9c-2.3,0-3.8-2.1-3.3-4.2c0.1-0.5,0.4-1,0.6-1.5c2.6-5.5,5.3-11.1,8-16.6
		c2.2-4.7,5.9-7.1,11.2-7c3.1,0.1,6.2-0.2,9.2,0.1c3.9,0.4,6.6,2.5,8.3,5.9c1.8,3.6,3.5,7.2,5.2,10.8C69.2,44.4,73.4,52.9,73.4,54.4
		z"/>
	<path class="st0" d="M49.9,10.3c4.5,0,8.1,3.5,8.1,8.1c0,4.5-3.7,8.1-8.1,8.1s-8-3.7-8.1-8C41.7,14,45.4,10.3,49.9,10.3z"/>
</g>
</svg>
