<?xml version="1.0" encoding="utf-8"?>
<!-- Generator: Adobe Illustrator 24.1.1, SVG Export Plug-In . SVG Version: 6.00 Build 0)  -->
<svg version="1.1" id="Layer_1" xmlns="http://www.w3.org/2000/svg" xmlns:xlink="http://www.w3.org/1999/xlink" x="0px" y="0px"
	 viewBox="0 0 100 100" style="enable-background:new 0 0 100 100;" xml:space="preserve">
<style type="text/css">
	.st0{fill:#AB0004;}
	.st1{fill:#FFFFFF;}
</style>
<g>
	<path class="st0" d="M52.1,16.4C70.4,16.6,85,31.3,85,49.5c0,18.4-14.9,33-33.1,33C33.6,82.4,18.9,67.6,19,49.4
		C19,31.1,33.8,16.5,52.1,16.4z"/>
</g>
<g>
	<path class="st1" d="M44.5,50.4c0,3.2,0,6.4,0,9.5c0,0.9,0.1,1.8,1,2.3c1,0.6,1.8,0.1,2.6-0.4c4.7-3.2,9.5-6.3,14.3-9.5
		c1.9-1.3,1.9-2.7,0-4c-3.2-2.2-6.5-4.3-9.7-6.4c-1.6-1.1-3.3-2.2-5-3.3c-1.5-0.9-2.9-0.3-3.2,1.5c-0.1,0.4,0,0.8,0,1.2
		C44.5,44.4,44.5,47.4,44.5,50.4z"/>
</g>
</svg>
