<?xml version="1.0" encoding="utf-8"?>
<!-- Generator: Adobe Illustrator 24.1.1, SVG Export Plug-In . SVG Version: 6.00 Build 0)  -->
<svg version="1.1" id="Layer_1" xmlns="http://www.w3.org/2000/svg" xmlns:xlink="http://www.w3.org/1999/xlink" x="0px" y="0px"
	 viewBox="0 0 100 100" style="enable-background:new 0 0 100 100;" xml:space="preserve">
<style type="text/css">
	.st0{fill:#010101;}
</style>
<g>
	<path class="st0" d="M58.2,67.8c-1.4,6-2.8,11.9-4.2,17.8c-0.3,1.2-0.7,2.4-1.8,3.2c-1.3,0.9-2.8,1-4.2,0.3
		c-1.5-0.8-2.3-2.1-1.9-3.8c0.4-2.2,1-4.5,1.6-6.7c2.7-9.6,3.9-19.4,2.9-29.4c-0.1-0.9,0.5-1.1,1-1.4c4.2-3.1,6.4-7.3,6.7-12.5
		c0.1-2.9-1.7-5.1-4.6-5.6c-2.6-0.5-5.1,1.2-6,3.8c-0.4,1.2-0.8,2.5-1.6,3.5c-0.3,0.5-0.7,1.2-1.2,1.1c-0.4-0.1-0.8-0.8-1-1.3
		c-2-4.2,0.4-9.3,4.8-10.7c2.4-0.8,4.7-0.4,6.8,0.9c6.2,4,9.7,9.8,11,17c1,5.4,1,10.8,1,16.2c0,6.1-0.2,12.3,0.4,18.4
		c0.2,2.1,0.5,4.2,0.8,6.3c0.3,2.3-1.1,4.2-3.2,4.5c-2.1,0.3-4-1.1-4.4-3.4c-0.8-5.5-1.7-10.9-2.5-16.4
		C58.6,69.1,58.4,68.6,58.2,67.8z"/>
	<path class="st0" d="M53.1,31.2c2.3,0,4.1,2.2,3.6,4.6c-1.4,7.2-7.1,12.5-14.4,13.3c-0.9,0.1-1.3,0.2-1.4,1.2
		c-1.8,10.8-3.7,21.6-5.6,32.4c-0.1,0.7-0.3,1.4-0.3,2.1c-0.1,1.3-0.5,2.2-2,2c-1.5-0.3-1.8-1.2-1.6-2.6c0.6-3.2,1-6.4,1.6-9.6
		c1.6-9.2,3.2-18.3,4.8-27.5c0.1-0.5,0-1.1,0-1.6c-0.1-2.2,1.4-4,3.5-4.1c4-0.2,6.2-2.5,7.6-5.9c0.2-0.6,0.5-1.2,0.7-1.8
		C50.1,31.9,51.4,31.3,53.1,31.2z"/>
	<path class="st0" d="M33.4,18.7c0-4.6,3.7-8.3,8.3-8.3c4.6,0,8.3,3.7,8.2,8.4c0,4.6-3.7,8.3-8.3,8.3C37.1,27.1,33.4,23.4,33.4,18.7
		z"/>
</g>
</svg>
